<?xml version="1.0" encoding="UTF-8"?>
<svg xmlns="http://www.w3.org/2000/svg" width="161" height="148" viewBox="0 0 161 148" fill="none"> <path d="M13.4714 54.0163C13.5606 54.3928 14.5379 53.2713 14.7067 53.123C15.8173 52.1475 17.1003 51.328 18.2865 50.4494C21.5622 48.0228 25.2596 46.1502 28.9335 44.3939C36.9985 40.5386 44.9498 36.6083 53.1664 33.0714C60.9412 29.7248 69.6513 27.3564 77.8417 25.1718C81.4743 24.2029 85.2814 23.3843 88.7662 21.9635C89.2194 21.7787 92.5436 20.8032 91.7521 21.9322" stroke="#BBE1D6" stroke-width="7" stroke-linecap="round"/> <path d="M13.9123 54.0816C12.1004 55.4237 10.9702 58.9909 10.2612 61.1036C9.3752 63.7439 9.88217 67.3342 10.4153 69.995C11.6586 76.2007 17.6341 78.7369 22.7324 81.3239C27.0097 83.4944 33.1626 83.7025 37.848 83.4496C44.0808 83.1131 50.0913 79.3656 55.9727 77.4805C63.6857 75.0084 70.9007 71.157 78.5298 68.6642C80.8767 67.8973 83.392 66.2553 85.7728 65.7845C88.3839 65.2683 89.6079 63.9152 93.3146 62.7489C97.8514 61.3215 99.0752 60.5234 102.692 59.16C106.988 57.541 108.526 57.2464 111.125 56.0316C114.947 54.2451 117.409 52.9555 120.812 52.2132C122.493 51.8468 123.124 51.4064 124.478 50.4793C125.039 50.0948 126.629 49.2214 126.472 49.198" stroke="#BBE1D6" stroke-width="7" stroke-linecap="round"/> <path d="M93.8925 22.7016C95.1719 24.232 97.5864 26.0597 99.2834 27.2121C101.352 28.6169 103.008 30.0838 104.842 31.8284C106.394 33.3047 108.886 34.6978 110.709 35.7778C114.769 38.182 118.068 41.2917 121.821 44.0964C123.606 45.4304 124.752 46.8771 126.264 48.4619C127.536 49.795 129.935 52.7021 131.457 53.7163C135.406 57.2917 138.948 60.1219 141.842 64.225C143.539 66.6311 144.931 68.9911 146.364 71.5757C147.61 73.8227 147.951 75.4629 148.562 77.8404C149.205 80.3404 149.694 80.8728 150.236 83.4257C150.616 85.2155 150.193 87.5987 150.051 89.3469C149.884 91.3875 147.501 96.4358 147.501 96.4358C147.501 96.4358 145.937 98.9288 144.98 100.555C139.533 109.809 129.13 104.48 121.94 100.832C115.737 97.6845 110.288 94.2415 105.412 89.3521C102.933 86.8664 99.8083 85.2275 97.3918 82.6464C94.6848 79.7548 91.5652 76.9633 88.6702 74.2579C83.5974 69.5171 77.7732 65.4149 72.9651 60.4453C68.8659 56.2084 63.5379 53.4756 59.3422 49.4731C56.4215 46.6868 54.2575 44.1216 50.9179 41.7802C49.3425 40.6757 46.5256 38.4316 45.8923 36.4935" stroke="#BBE1D6" stroke-width="7" stroke-linecap="round"/> <path d="M125.148 49.001C124.416 53.9181 124.278 58.8943 124.191 63.8396C124.106 68.7604 122.491 73.635 122.128 78.5386C121.707 84.2202 120.856 89.9409 120.015 95.5851" stroke="#BBE1D6" stroke-width="7" stroke-linecap="round"/> <path d="M45.457 39.4161C46.7774 30.5493 43.4152 55.8253 42.0949 64.692C41.2238 70.5414 40.3528 76.3908 39.4817 82.2402" stroke="#BBE1D6" stroke-width="7" stroke-linecap="round"/> <path d="M117.791 98.4104C118.311 98.0254 119.995 96.9986 118.433 97.8045C116.928 98.5807 115.645 99.3966 113.938 99.8909C110.902 100.77 107.858 102.618 104.988 103.969C102.39 105.194 99.586 105.6 96.9784 106.785C93.1518 108.524 88.9666 109.92 85.3098 111.962C82.9674 113.27 80.0415 115.354 77.318 115.832" stroke="#BBE1D6" stroke-width="7" stroke-linecap="round"/> <path d="M41.162 86.0977C41.1673 86.0621 43.5699 88.1226 44.1542 88.5475C46.5472 90.2875 47.9721 92.477 49.9144 94.6161C53.4213 98.4781 58.425 100.616 62.2628 104.221C65.4152 107.183 68.4758 109.817 71.9778 112.332C72.9756 113.048 73.9635 113.782 74.9011 114.571C75.5406 115.109 75.9935 115.647 75.9952 115.635" stroke="#BBE1D6" stroke-width="7" stroke-linecap="round"/> <path d="M76.4833 118.413C76.6169 117.516 77.0381 114.688 76.6475 117.31C76.1203 120.851 76.3021 123.176 75.7655 127.776C75.2007 132.618 74.7064 134.888 74.126 137.789" stroke="#BBE1D6" stroke-width="7" stroke-linecap="round"/> <path d="M75.9647 24.9923C78.1552 27.5712 75.0414 17.9329 72.8962 15.3162C69.2635 10.8851 65.3975 8.08683 59.6697 7.23389" stroke="#BBE1D6" stroke-width="7" stroke-linecap="round"/> <path d="M103.335 25.9115C103.724 24.4412 103.834 24.0586 104.686 22.843C105.785 21.2752 109.725 18.4374 111.402 17.8681C113.9 17.0203 116.001 16.3425 118.565 15.8287C123.092 14.9218 127.544 16.3418 130.94 19.1997" stroke="#BBE1D6" stroke-width="7" stroke-linecap="round"/> </svg>