<?xml version="1.0" encoding="UTF-8"?>
<svg xmlns="http://www.w3.org/2000/svg" width="1281" height="545" viewBox="0 0 1281 545" fill="none"> <path fill-rule="evenodd" clip-rule="evenodd" d="M617.003 87.2908C617.01 87.2813 617.177 87.8256 617.003 88.2906C617.15 87.863 616.996 87.3003 617.003 87.2908ZM609.003 100.289C610.731 96.7355 612.675 93.7012 614.003 90.2903C616.096 84.9121 618.35 78.767 621.003 73.2932C622.285 70.648 624.634 67.3812 627.003 63.295C627.029 63.2496 626.954 63.38 627.003 63.295C628.085 61.3985 634.891 49.8197 646.003 38.2993C649.503 34.6702 656.144 27.9428 666.003 21.3022C674.206 15.7769 695.776 2.47867 727.002 0.305822C766.384 -2.43448 804.431 13.3492 830.002 43.2984C840.907 56.0706 847.892 69.4925 852.002 80.292C874.109 69.0872 912.12 57.909 956.001 75.2929C998.11 91.9746 1017.61 124.294 1024 137.282C1024.72 138.739 1025.37 139.868 1026 141.281C1026.07 141.355 1025.93 141.208 1026 141.281C1029.16 136.836 1032.78 132.953 1037 128.284C1037.5 127.573 1038.33 126.232 1039 125.284C1040.44 123.256 1043.07 119.059 1047 114.286V114.286C1049.69 111.025 1058.92 98.7905 1074 88.2906C1084.64 80.8787 1141.42 45.6128 1207 81.2918C1258.15 109.116 1268.46 158.025 1270 165.277C1270.04 165.462 1269.97 166.149 1270 166.277C1273.11 180.526 1274 192.334 1274 198.272C1274 198.679 1274 199.875 1274 200.271C1278.51 213.133 1281 226.865 1281 241.264V241.264C1281 244.284 1280.92 254.846 1278 268.26C1276.67 274.371 1272.83 290.822 1262 308.253C1254.53 320.277 1239.19 339.126 1215 352.245C1215.07 355.158 1214.88 357.625 1215 361.244C1215.03 362.144 1214.97 363.273 1215 364.243C1215.55 380.593 1217.12 406.303 1214 433.231C1213.35 438.828 1211.32 451.979 1205 467.225C1199.42 480.694 1181.81 515.681 1139 534.214C1091.96 554.574 1051.2 540.315 1032 530.214C1013.86 520.67 1002.22 508.775 998.001 504.219C988.918 494.412 983.439 484.614 982.001 482.223V482.223C979.776 478.525 977.842 475.837 977.001 474.224C976.953 474.131 977.136 473.489 977.001 473.224C969.639 462.533 963.292 452.547 958.001 444.229C957.407 443.295 956.562 442.11 956.001 441.23C948.255 429.069 938.307 415.762 926.002 400.237C925.922 400.136 926.081 400.337 926.002 400.237C923.523 404.083 920.175 407.928 918.002 411.235C916.901 412.91 916.792 415.021 916.002 416.234C912.833 421.094 909.761 424.241 908.002 427.232C907.416 434.262 906.826 443.252 904.002 453.228V453.228C901.716 461.303 888.828 503.906 843.002 529.215C784.346 561.608 731.96 536.001 714.002 524.215C696.084 512.455 685.288 498.529 682.003 494.221C681.886 494.068 682.118 494.373 682.003 494.221C677.59 496.234 672.944 497.648 668.003 499.22C639.7 508.223 613.376 506.042 594.003 500.22C561.372 490.413 542.435 469.986 538.003 465.226V465.226C526.223 452.576 519.731 439.431 518.003 436.231C517.951 436.134 518.046 436.31 518.003 436.231C517.24 434.822 515.681 433.565 515.003 432.231C513.82 435.542 513.016 438.935 512.003 442.23V442.23C510.092 448.45 504.296 466.971 492.003 485.222C485.522 494.845 470.387 515.355 443.004 529.215C410.105 545.866 373.463 546.731 342.004 535.213C330.78 531.104 321.622 525.41 314.004 520.216C309.762 523.093 305.028 525.677 300.004 528.215C279.877 538.378 254.024 544.612 225.004 540.213C196.955 535.96 175.44 523.59 162.005 512.217C157.825 508.679 154.355 504.855 151.005 501.219C142.222 503.187 133.382 504.219 124.005 504.219C55.3627 504.219 0.00537441 448.871 0.00537441 380.24V246.263C0.00537441 245.299 0.00647436 244.288 0.00537441 243.264C-0.0234647 216.547 -0.450333 170.38 18.0053 121.285C18.063 121.131 17.9242 121.502 18.0053 121.285C18.9781 118.682 21.9863 110.815 25.0053 104.288C26.709 100.604 30.152 92.9276 36.0052 84.2913C40.7882 77.2342 54.7453 58.3748 80.005 44.2982C112.151 26.3844 151.064 23.1178 187.005 37.2994C215.316 48.4706 232.046 67.2399 238.004 74.2931C240.675 77.4539 242.837 80.2064 245.004 83.2915C253.311 74.2454 266.117 62.8902 285.004 54.2965C302.478 46.3455 326.344 40.8754 353.004 44.2982C377.584 47.4541 397.575 56.505 412.004 67.2943C430.012 50.0711 471.019 22.2271 528.003 36.2996C575.364 47.9957 598.2 81.9329 603.003 89.2905C605.54 93.1766 607.243 96.8914 609.003 100.289ZM909.002 405.236C909.001 405.217 909 405.204 909.002 405.236V405.236ZM892.002 364.243C892.225 364.783 892.994 365.223 893.002 365.243V365.243C892.885 364.954 892.114 364.529 892.002 364.243ZM1198 359.244C1198.05 359.334 1197.26 359.767 1197 359.244C1196.97 359.185 1197.05 358.334 1197 358.244C1196.7 357.637 1196.61 356.444 1196 355.245C1195.98 355.207 1196.04 355.324 1196 355.245C1195.24 353.733 1190.4 345.222 1184 336.248C1180.9 331.899 1178.39 327.473 1175 322.25C1173.1 319.321 1170.24 315.763 1168 312.252C1188.36 308.38 1204.12 300.139 1212 295.255C1213.97 294.037 1216.03 292.932 1217 292.255C1217.29 292.051 1216.71 292.46 1217 292.255C1223.4 287.712 1229.38 282.886 1233 279.258C1230.73 283.111 1227.05 288.579 1222 294.255C1220.33 296.132 1218.02 297.312 1216 299.254C1217.97 297.363 1220.23 296.152 1222 294.255C1226.82 289.094 1231.08 284.109 1234 280.258C1234.24 279.94 1233.77 279.559 1234 279.258C1234.32 278.341 1234.74 277.033 1235 276.258M1054 171.276C1054.35 171.646 1054.65 171.902 1055 172.276C1062.45 180.148 1070.47 189.061 1079 198.272C1085.73 205.539 1092.42 213.822 1099 221.268C1105.02 228.081 1110.69 234.764 1116 241.264C1117.46 243.047 1119.62 244.526 1121 246.263C1121.39 246.76 1121.6 246.762 1122 247.263C1135.79 264.698 1150.79 285.944 1165 308.253L1166 309.253C1166.52 310.063 1167.51 311.476 1168 312.252C1168.15 312.48 1167.86 312.027 1168 312.252C1163.9 313.033 1160.47 313.892 1156 314.252C1155.77 314.271 1155.24 314.234 1155 314.252M1034 131.283C1034.01 131.256 1034.5 130.929 1035 130.283C1034.47 131.037 1033.99 131.31 1034 131.283Z" fill="#F9F9FA"/> <path d="M1055 172.276L1054 171.276L1155 314.252C1155.24 314.234 1155.77 314.271 1156 314.252C1160.47 313.892 1163.9 313.033 1168 312.252V312.252L1166 309.253L1165 308.253C1150.79 285.944 1135.79 264.698 1122 247.263C1121.6 246.762 1121.39 246.76 1121 246.263C1119.62 244.526 1117.46 243.047 1116 241.264C1110.69 234.764 1105.02 228.081 1099 221.268C1092.42 213.822 1085.73 205.539 1079 198.272C1070.47 189.061 1062.45 180.148 1055 172.276Z" fill="#F9F9FA"/> <path d="M1197 359.244C1197.26 359.767 1198.05 359.334 1198 359.244L1234 280.258C1231.08 284.109 1226.82 289.094 1222 294.255C1220.23 296.152 1217.97 297.363 1216 299.254C1218.02 297.312 1220.33 296.132 1222 294.255C1227.05 288.579 1230.73 283.111 1233 279.258C1229.38 282.886 1223.4 287.712 1217 292.255C1216.71 292.46 1217.29 292.051 1217 292.255C1216.03 292.932 1213.97 294.037 1212 295.255C1204.12 300.139 1188.36 308.38 1168 312.252C1170.24 315.763 1173.1 319.321 1175 322.25C1178.39 327.473 1180.9 331.899 1184 336.248C1190.4 345.222 1195.24 353.733 1196 355.245C1196.04 355.324 1195.98 355.207 1196 355.245C1196.61 356.444 1196.7 357.637 1197 358.244V359.244Z" fill="#F9F9FA"/> </svg>