<?xml version="1.0" encoding="UTF-8"?>
<svg xmlns="http://www.w3.org/2000/svg" width="175" height="162" viewBox="0 0 175 162" fill="none"> <path d="M4.77734 39.8146C16.1678 36.2796 28.1064 35.164 39.4676 31.3358C62.4794 23.5818 85.4369 15.6562 108.461 7.93437C131.112 0.337366 154.585 -5.84828 177.696 -11.9302C184.439 -13.7048 192.166 -16 199.256 -16" stroke="#AF388A" stroke-width="8" stroke-linecap="round"/> <path d="M5.64855 41.5587C4.86622 39.8963 3.26162 36.9672 4.38884 40.832C8.52591 55.0162 12.697 69.0511 17.3735 83.0805C22.9487 99.8063 24.8827 117.406 29.8736 134.292C31.4076 139.482 32.4277 151.316 37.9163 154.06" stroke="#AF388A" stroke-width="8" stroke-linecap="round"/> <path d="M35.3 157.548C38.5172 155.739 40.1474 154.472 44.2149 153.382C60.1589 149.108 75.3313 143.209 91.0662 138.314C117.721 130.021 144.274 122.106 171.542 116.075C187.577 112.529 202.498 108.308 218.006 103.139C222.958 101.488 227.6 101.781 231.329 98.0517C231.944 97.437 234.408 96.8905 232.831 95.6292C231.275 94.3843 231.244 90.4313 230.651 88.6523" stroke="#AF388A" stroke-width="8" stroke-linecap="round"/> <path d="M8.26513 42.4309C4.47596 41.2183 2.8349 40.9368 7.48993 41.9948C13.49 43.3585 20.0537 42.7346 26.1917 43.739C34.869 45.1589 43.174 47.8555 51.8218 49.4077C71.6359 52.964 91.4859 56.757 111.27 60.5512C118.071 61.8554 125.162 65.1055 132.104 65.1055" stroke="#AF388A" stroke-width="8" stroke-linecap="round"/> <path d="M197.511 -13.3838C195.713 -12.9342 192.193 -4.24942 191.019 -2.62786C187.222 2.61572 183.053 7.54315 179.245 12.7793C172.2 22.466 163.785 30.7336 156.571 40.2021C151.62 46.6994 144.365 52.1727 138.692 58.1286C136.312 60.628 133.217 65.9775 129.487 65.9775" stroke="#AF388A" stroke-width="8" stroke-linecap="round"/> </svg>