<?xml version="1.0" encoding="UTF-8"?>
<svg xmlns="http://www.w3.org/2000/svg" width="190" height="130" viewBox="0 0 190 130" fill="none"> <rect x="0.561523" y="0.684082" width="189.102" height="129" rx="7.31558" fill="white"/> <path d="M18.1523 38.7977H170.607" stroke="#E7E7E7" stroke-opacity="0.44" stroke-width="0.879546"/> <path d="M18.1523 57.8545H170.607" stroke="#E7E7E7" stroke-opacity="0.44" stroke-width="0.879546"/> <path d="M18.1523 76.9114H170.607" stroke="#E7E7E7" stroke-opacity="0.44" stroke-width="0.879546"/> <path d="M18.1523 95.9681H170.607" stroke="#E7E7E7" stroke-opacity="0.44" stroke-width="0.879546"/> <path d="M18.1523 115.025H170.607" stroke="#E7E7E7" stroke-opacity="0.44" stroke-width="0.879546"/> <rect x="34.9014" y="9.82849" width="120.461" height="18.2307" rx="3.61537" fill="#372F2C"/> <path d="M47.9632 16.0678V22.444H46.8175V17.0267H44.0279V22.444H42.8822V16.0678H47.9632ZM48.4389 22.444L48.4327 21.5162H48.5977C48.7222 21.5162 48.827 21.4882 48.9121 21.4321C48.9972 21.3761 49.0678 21.2827 49.1238 21.1519C49.1799 21.0191 49.2235 20.8406 49.2546 20.6164C49.2857 20.3923 49.3075 20.1131 49.32 19.7789L49.404 17.6618H52.891V22.444H51.8013V18.5865H50.4283L50.3536 20.1276C50.3349 20.5261 50.2903 20.8717 50.2197 21.1644C50.1512 21.455 50.0537 21.6947 49.9271 21.8836C49.8025 22.0724 49.6458 22.2136 49.457 22.307C49.2681 22.3983 49.045 22.444 48.7876 22.444H48.4389ZM54.8759 22.5405C54.5729 22.5405 54.2999 22.4865 54.0571 22.3786C53.8163 22.2686 53.6254 22.1067 53.4842 21.8929C53.3452 21.6791 53.2756 21.4155 53.2756 21.1021C53.2756 20.8323 53.3255 20.6092 53.4251 20.4327C53.5247 20.2563 53.6607 20.1152 53.8329 20.0093C54.0052 19.9035 54.1993 19.8235 54.4151 19.7696C54.6331 19.7135 54.8583 19.6731 55.0907 19.6482C55.3709 19.6191 55.5982 19.5932 55.7726 19.5703C55.9469 19.5454 56.0735 19.5081 56.1524 19.4582C56.2333 19.4064 56.2738 19.3264 56.2738 19.2185V19.1998C56.2738 18.9653 56.2043 18.7837 56.0652 18.655C55.9262 18.5263 55.7259 18.462 55.4643 18.462C55.1883 18.462 54.9693 18.5222 54.8074 18.6425C54.6476 18.7629 54.5397 18.9051 54.4836 19.0691L53.4313 18.9196C53.5143 18.629 53.6513 18.3862 53.8423 18.1911C54.0332 17.9939 54.2667 17.8465 54.5428 17.749C54.8188 17.6494 55.1239 17.5996 55.4581 17.5996C55.6885 17.5996 55.9179 17.6265 56.1462 17.6805C56.3745 17.7345 56.5831 17.8237 56.772 17.9483C56.9608 18.0707 57.1124 18.2378 57.2265 18.4495C57.3427 18.6612 57.4009 18.9259 57.4009 19.2434V22.444H56.3174V21.787H56.28C56.2116 21.9199 56.115 22.0444 55.9905 22.1607C55.868 22.2748 55.7134 22.3672 55.5266 22.4377C55.3419 22.5062 55.125 22.5405 54.8759 22.5405ZM55.1686 21.7123C55.3948 21.7123 55.591 21.6677 55.757 21.5785C55.923 21.4871 56.0507 21.3667 56.1399 21.2173C56.2313 21.0679 56.2769 20.9049 56.2769 20.7285V20.165C56.2417 20.194 56.1815 20.221 56.0964 20.2459C56.0133 20.2708 55.9199 20.2926 55.8162 20.3113C55.7124 20.33 55.6096 20.3466 55.5079 20.3611C55.4062 20.3756 55.318 20.3881 55.2433 20.3985C55.0752 20.4213 54.9247 20.4587 54.7919 20.5106C54.659 20.5625 54.5542 20.6351 54.4774 20.7285C54.4006 20.8198 54.3622 20.9381 54.3622 21.0834C54.3622 21.291 54.438 21.4477 54.5895 21.5535C54.741 21.6594 54.934 21.7123 55.1686 21.7123ZM61.2927 19.5859V20.5106H58.746V19.5859H61.2927ZM59.0947 17.6618V22.444H58.0081V17.6618H59.0947ZM62.0306 17.6618V22.444H60.9471V17.6618H62.0306ZM64.2935 22.444V17.6618H65.4205V19.5921H65.8315L67.2699 17.6618H68.6273L66.8558 20.0093L68.646 22.444H67.2823L65.9716 20.6413H65.4205V22.444H64.2935ZM70.1351 22.5405C69.832 22.5405 69.5591 22.4865 69.3163 22.3786C69.0755 22.2686 68.8845 22.1067 68.7434 21.8929C68.6043 21.6791 68.5348 21.4155 68.5348 21.1021C68.5348 20.8323 68.5846 20.6092 68.6842 20.4327C68.7839 20.2563 68.9198 20.1152 69.0921 20.0093C69.2644 19.9035 69.4584 19.8235 69.6743 19.7696C69.8922 19.7135 70.1174 19.6731 70.3499 19.6482C70.6301 19.6191 70.8574 19.5932 71.0317 19.5703C71.2061 19.5454 71.3327 19.5081 71.4116 19.4582C71.4925 19.4064 71.533 19.3264 71.533 19.2185V19.1998C71.533 18.9653 71.4634 18.7837 71.3244 18.655C71.1853 18.5263 70.985 18.462 70.7235 18.462C70.4475 18.462 70.2285 18.5222 70.0666 18.6425C69.9068 18.7629 69.7988 18.9051 69.7428 19.0691L68.6905 18.9196C68.7735 18.629 68.9105 18.3862 69.1014 18.1911C69.2924 17.9939 69.5259 17.8465 69.8019 17.749C70.078 17.6494 70.3831 17.5996 70.7173 17.5996C70.9477 17.5996 71.177 17.6265 71.4053 17.6805C71.6336 17.7345 71.8422 17.8237 72.0311 17.9483C72.22 18.0707 72.3715 18.2378 72.4857 18.4495C72.6019 18.6612 72.66 18.9259 72.66 19.2434V22.444H71.5766V21.787H71.5392C71.4707 21.9199 71.3742 22.0444 71.2497 22.1607C71.1272 22.2748 70.9726 22.3672 70.7858 22.4377C70.601 22.5062 70.3841 22.5405 70.1351 22.5405ZM70.4277 21.7123C70.654 21.7123 70.8501 21.6677 71.0162 21.5785C71.1822 21.4871 71.3099 21.3667 71.3991 21.2173C71.4904 21.0679 71.5361 20.9049 71.5361 20.7285V20.165C71.5008 20.194 71.4406 20.221 71.3555 20.2459C71.2725 20.2708 71.1791 20.2926 71.0753 20.3113C70.9715 20.33 70.8688 20.3466 70.7671 20.3611C70.6654 20.3756 70.5772 20.3881 70.5025 20.3985C70.3343 20.4213 70.1839 20.4587 70.051 20.5106C69.9182 20.5625 69.8134 20.6351 69.7366 20.7285C69.6598 20.8198 69.6214 20.9381 69.6214 21.0834C69.6214 21.291 69.6971 21.4477 69.8486 21.5535C70.0002 21.6594 70.1932 21.7123 70.4277 21.7123ZM73.2673 24.2373V17.6618H74.3756V18.4526H74.441C74.4991 18.3364 74.5811 18.2129 74.687 18.0821C74.7928 17.9493 74.936 17.8362 75.1166 17.7428C75.2972 17.6473 75.5276 17.5996 75.8078 17.5996C76.1772 17.5996 76.5104 17.694 76.8072 17.8829C77.1061 18.0697 77.3427 18.3468 77.517 18.7141C77.6934 19.0794 77.7817 19.5278 77.7817 20.0591C77.7817 20.5842 77.6955 21.0305 77.5232 21.3979C77.351 21.7653 77.1164 22.0455 76.8196 22.2385C76.5228 22.4315 76.1866 22.528 75.8109 22.528C75.5369 22.528 75.3096 22.4824 75.1291 22.391C74.9485 22.2997 74.8032 22.1897 74.6932 22.061C74.5853 21.9303 74.5012 21.8068 74.441 21.6905H74.3943V24.2373H73.2673ZM74.3725 20.0529C74.3725 20.3622 74.4161 20.633 74.5033 20.8655C74.5925 21.098 74.7202 21.2796 74.8862 21.4103C75.0543 21.539 75.2577 21.6034 75.4964 21.6034C75.7455 21.6034 75.9541 21.5369 76.1222 21.4041C76.2903 21.2692 76.417 21.0855 76.5021 20.853C76.5892 20.6185 76.6328 20.3518 76.6328 20.0529C76.6328 19.7561 76.5903 19.4925 76.5052 19.2621C76.4201 19.0317 76.2935 18.8511 76.1253 18.7204C75.9572 18.5896 75.7476 18.5242 75.4964 18.5242C75.2557 18.5242 75.0512 18.5875 74.8831 18.7141C74.715 18.8408 74.5873 19.0182 74.5002 19.2465C74.4151 19.4748 74.3725 19.7436 74.3725 20.0529ZM78.9835 19.2185H80.3939C81.0041 19.2185 81.4763 19.3669 81.8105 19.6637C82.1447 19.9605 82.3128 20.3497 82.3149 20.8312C82.3128 21.1447 82.236 21.4228 82.0845 21.6656C81.935 21.9085 81.7171 22.0994 81.4307 22.2385C81.1463 22.3755 80.8007 22.444 80.3939 22.444H78.2208V17.6618H79.3073V21.5193H80.3939C80.6388 21.5193 80.8402 21.457 80.9979 21.3325C81.1556 21.2059 81.2345 21.044 81.2345 20.8468C81.2345 20.6392 81.1556 20.4701 80.9979 20.3393C80.8402 20.2086 80.6388 20.1432 80.3939 20.1432H78.9835V19.2185ZM84.8718 22.5374C84.3924 22.5374 83.9783 22.4377 83.6296 22.2385C83.283 22.0372 83.0163 21.7528 82.8295 21.3854C82.6427 21.016 82.5493 20.5811 82.5493 20.0809C82.5493 19.589 82.6427 19.1573 82.8295 18.7858C83.0183 18.4121 83.2819 18.1216 83.6203 17.914C83.9586 17.7044 84.3561 17.5996 84.8127 17.5996C85.1074 17.5996 85.3856 17.6473 85.6471 17.7428C85.9107 17.8362 86.1431 17.9815 86.3445 18.1786C86.5479 18.3758 86.7077 18.627 86.8239 18.9321C86.9402 19.2351 86.9983 19.5963 86.9983 20.0155V20.3611H83.0785V19.6015H85.9179C85.9159 19.3856 85.8692 19.1936 85.7778 19.0255C85.6865 18.8553 85.5589 18.7214 85.3949 18.6239C85.233 18.5263 85.0441 18.4775 84.8283 18.4775C84.5979 18.4775 84.3955 18.5336 84.2211 18.6456C84.0468 18.7557 83.9108 18.9009 83.8133 19.0815C83.7178 19.26 83.669 19.4562 83.667 19.67V20.3331C83.667 20.6112 83.7178 20.8499 83.8195 21.0492C83.9212 21.2464 84.0634 21.3979 84.2461 21.5037C84.4287 21.6075 84.6425 21.6594 84.8874 21.6594C85.0514 21.6594 85.1998 21.6366 85.3326 21.5909C85.4655 21.5432 85.5807 21.4736 85.6782 21.3823C85.7758 21.291 85.8494 21.1779 85.8993 21.0429L86.9516 21.1613C86.8852 21.4394 86.7586 21.6822 86.5717 21.8898C86.387 22.0953 86.1504 22.2551 85.8619 22.3692C85.5734 22.4813 85.2434 22.5374 84.8718 22.5374ZM87.4257 24.2373V17.6618H88.5341V18.4526H88.5995C88.6576 18.3364 88.7396 18.2129 88.8454 18.0821C88.9513 17.9493 89.0945 17.8362 89.2751 17.7428C89.4556 17.6473 89.686 17.5996 89.9662 17.5996C90.3357 17.5996 90.6688 17.694 90.9656 17.8829C91.2645 18.0697 91.5011 18.3468 91.6755 18.7141C91.8519 19.0794 91.9401 19.5278 91.9401 20.0591C91.9401 20.5842 91.854 21.0305 91.6817 21.3979C91.5094 21.7653 91.2749 22.0455 90.9781 22.2385C90.6813 22.4315 90.345 22.528 89.9693 22.528C89.6954 22.528 89.4681 22.4824 89.2875 22.391C89.1069 22.2997 88.9616 22.1897 88.8516 22.061C88.7437 21.9303 88.6596 21.8068 88.5995 21.6905H88.5528V24.2373H87.4257ZM88.531 20.0529C88.531 20.3622 88.5746 20.633 88.6617 20.8655C88.751 21.098 88.8786 21.2796 89.0447 21.4103C89.2128 21.539 89.4162 21.6034 89.6549 21.6034C89.904 21.6034 90.1126 21.5369 90.2807 21.4041C90.4488 21.2692 90.5754 21.0855 90.6605 20.853C90.7477 20.6185 90.7913 20.3518 90.7913 20.0529C90.7913 19.7561 90.7487 19.4925 90.6636 19.2621C90.5785 19.0317 90.4519 18.8511 90.2838 18.7204C90.1157 18.5896 89.906 18.5242 89.6549 18.5242C89.4141 18.5242 89.2097 18.5875 89.0416 18.7141C88.8734 18.8408 88.7458 19.0182 88.6586 19.2465C88.5735 19.4748 88.531 19.7436 88.531 20.0529ZM95.6638 19.5859V20.5106H93.1171V19.5859H95.6638ZM93.4658 17.6618V22.444H92.3792V17.6618H93.4658ZM96.4017 17.6618V22.444H95.3182V17.6618H96.4017ZM99.1019 22.5374C98.6349 22.5374 98.2302 22.4346 97.8877 22.2291C97.5452 22.0237 97.2795 21.7362 97.0907 21.3667C96.9039 20.9973 96.8105 20.5656 96.8105 20.0716C96.8105 19.5776 96.9039 19.1448 97.0907 18.7733C97.2795 18.4018 97.5452 18.1133 97.8877 17.9078C98.2302 17.7023 98.6349 17.5996 99.1019 17.5996C99.5689 17.5996 99.9737 17.7023 100.316 17.9078C100.659 18.1133 100.923 18.4018 101.11 18.7733C101.299 19.1448 101.393 19.5776 101.393 20.0716C101.393 20.5656 101.299 20.9973 101.11 21.3667C100.923 21.7362 100.659 22.0237 100.316 22.2291C99.9737 22.4346 99.5689 22.5374 99.1019 22.5374ZM99.1081 21.6345C99.3614 21.6345 99.5731 21.565 99.7433 21.4259C99.9135 21.2848 100.04 21.0959 100.123 20.8593C100.208 20.6226 100.251 20.359 100.251 20.0685C100.251 19.7758 100.208 19.5112 100.123 19.2746C100.04 19.0359 99.9135 18.8459 99.7433 18.7048C99.5731 18.5637 99.3614 18.4931 99.1081 18.4931C98.8487 18.4931 98.6328 18.5637 98.4606 18.7048C98.2904 18.8459 98.1627 19.0359 98.0776 19.2746C97.9946 19.5112 97.9531 19.7758 97.9531 20.0685C97.9531 20.359 97.9946 20.6226 98.0776 20.8593C98.1627 21.0959 98.2904 21.2848 98.4606 21.4259C98.6328 21.565 98.8487 21.6345 99.1081 21.6345ZM104.987 17.6618V18.5865H102.926V22.444H101.824V17.6618H104.987ZM107.254 22.5374C106.787 22.5374 106.382 22.4346 106.04 22.2291C105.697 22.0237 105.431 21.7362 105.243 21.3667C105.056 20.9973 104.962 20.5656 104.962 20.0716C104.962 19.5776 105.056 19.1448 105.243 18.7733C105.431 18.4018 105.697 18.1133 106.04 17.9078C106.382 17.7023 106.787 17.5996 107.254 17.5996C107.721 17.5996 108.125 17.7023 108.468 17.9078C108.81 18.1133 109.075 18.4018 109.262 18.7733C109.451 19.1448 109.545 19.5776 109.545 20.0716C109.545 20.5656 109.451 20.9973 109.262 21.3667C109.075 21.7362 108.81 22.0237 108.468 22.2291C108.125 22.4346 107.721 22.5374 107.254 22.5374ZM107.26 21.6345C107.513 21.6345 107.725 21.565 107.895 21.4259C108.065 21.2848 108.192 21.0959 108.275 20.8593C108.36 20.6226 108.403 20.359 108.403 20.0685C108.403 19.7758 108.36 19.5112 108.275 19.2746C108.192 19.0359 108.065 18.8459 107.895 18.7048C107.725 18.5637 107.513 18.4931 107.26 18.4931C107.001 18.4931 106.785 18.5637 106.612 18.7048C106.442 18.8459 106.315 19.0359 106.229 19.2746C106.146 19.5112 106.105 19.7758 106.105 20.0685C106.105 20.359 106.146 20.6226 106.229 20.8593C106.315 21.0959 106.442 21.2848 106.612 21.4259C106.785 21.565 107.001 21.6345 107.26 21.6345ZM111.624 24.2373V17.6618H112.733V18.4526H112.798C112.856 18.3364 112.938 18.2129 113.044 18.0821C113.15 17.9493 113.293 17.8362 113.474 17.7428C113.654 17.6473 113.885 17.5996 114.165 17.5996C114.534 17.5996 114.868 17.694 115.164 17.8829C115.463 18.0697 115.7 18.3468 115.874 18.7141C116.051 19.0794 116.139 19.5278 116.139 20.0591C116.139 20.5842 116.053 21.0305 115.88 21.3979C115.708 21.7653 115.474 22.0455 115.177 22.2385C114.88 22.4315 114.544 22.528 114.168 22.528C113.894 22.528 113.667 22.4824 113.486 22.391C113.306 22.2997 113.16 22.1897 113.05 22.061C112.942 21.9303 112.858 21.8068 112.798 21.6905H112.751V24.2373H111.624ZM112.73 20.0529C112.73 20.3622 112.773 20.633 112.86 20.8655C112.95 21.098 113.077 21.2796 113.243 21.4103C113.411 21.539 113.615 21.6034 113.854 21.6034C114.103 21.6034 114.311 21.5369 114.479 21.4041C114.647 21.2692 114.774 21.0855 114.859 20.853C114.946 20.6185 114.99 20.3518 114.99 20.0529C114.99 19.7561 114.947 19.4925 114.862 19.2621C114.777 19.0317 114.651 18.8511 114.482 18.7204C114.314 18.5896 114.105 18.5242 113.854 18.5242C113.613 18.5242 113.408 18.5875 113.24 18.7141C113.072 18.8408 112.944 19.0182 112.857 19.2465C112.772 19.4748 112.73 19.7436 112.73 20.0529ZM117.954 22.5405C117.651 22.5405 117.378 22.4865 117.135 22.3786C116.894 22.2686 116.703 22.1067 116.562 21.8929C116.423 21.6791 116.354 21.4155 116.354 21.1021C116.354 20.8323 116.404 20.6092 116.503 20.4327C116.603 20.2563 116.739 20.1152 116.911 20.0093C117.083 19.9035 117.277 19.8235 117.493 19.7696C117.711 19.7135 117.936 19.6731 118.169 19.6482C118.449 19.6191 118.676 19.5932 118.851 19.5703C119.025 19.5454 119.152 19.5081 119.231 19.4582C119.311 19.4064 119.352 19.3264 119.352 19.2185V19.1998C119.352 18.9653 119.282 18.7837 119.143 18.655C119.004 18.5263 118.804 18.462 118.542 18.462C118.266 18.462 118.047 18.5222 117.886 18.6425C117.726 18.7629 117.618 18.9051 117.562 19.0691L116.509 18.9196C116.592 18.629 116.729 18.3862 116.92 18.1911C117.111 17.9939 117.345 17.8465 117.621 17.749C117.897 17.6494 118.202 17.5996 118.536 17.5996C118.767 17.5996 118.996 17.6265 119.224 17.6805C119.453 17.7345 119.661 17.8237 119.85 17.9483C120.039 18.0707 120.19 18.2378 120.305 18.4495C120.421 18.6612 120.479 18.9259 120.479 19.2434V22.444H119.396V21.787H119.358C119.29 21.9199 119.193 22.0444 119.069 22.1607C118.946 22.2748 118.792 22.3672 118.605 22.4377C118.42 22.5062 118.203 22.5405 117.954 22.5405ZM118.247 21.7123C118.473 21.7123 118.669 21.6677 118.835 21.5785C119.001 21.4871 119.129 21.3667 119.218 21.2173C119.309 21.0679 119.355 20.9049 119.355 20.7285V20.165C119.32 20.194 119.26 20.221 119.174 20.2459C119.091 20.2708 118.998 20.2926 118.894 20.3113C118.79 20.33 118.688 20.3466 118.586 20.3611C118.484 20.3756 118.396 20.3881 118.321 20.3985C118.153 20.4213 118.003 20.4587 117.87 20.5106C117.737 20.5625 117.632 20.6351 117.556 20.7285C117.479 20.8198 117.44 20.9381 117.44 21.0834C117.44 21.291 117.516 21.4477 117.668 21.5535C117.819 21.6594 118.012 21.7123 118.247 21.7123ZM120.822 21.1332H121.939C121.95 21.3117 122.03 21.4498 122.179 21.5473C122.328 21.6449 122.523 21.6936 122.761 21.6936C123.004 21.6936 123.208 21.6407 123.375 21.5349C123.543 21.4269 123.627 21.264 123.627 21.0461C123.627 20.9174 123.595 20.8043 123.53 20.7067C123.466 20.6071 123.376 20.5303 123.259 20.4763C123.143 20.4224 123.006 20.3954 122.848 20.3954H122.117V19.5952H122.848C123.083 19.5952 123.26 19.5413 123.381 19.4333C123.503 19.3254 123.564 19.1895 123.564 19.0255C123.564 18.8491 123.5 18.7058 123.371 18.5958C123.245 18.4858 123.069 18.4308 122.845 18.4308C122.621 18.4308 122.434 18.4817 122.285 18.5834C122.137 18.6851 122.061 18.8158 122.054 18.9757H120.943C120.947 18.6975 121.03 18.4557 121.192 18.2503C121.356 18.0448 121.576 17.8849 121.852 17.7708C122.13 17.6566 122.444 17.5996 122.792 17.5996C123.166 17.5996 123.489 17.6556 123.761 17.7677C124.032 17.8798 124.242 18.0365 124.389 18.2378C124.537 18.4371 124.611 18.6716 124.611 18.9414C124.611 19.2009 124.53 19.4157 124.368 19.5859C124.206 19.754 123.988 19.8744 123.714 19.947V19.9969C123.903 20.0072 124.073 20.0612 124.224 20.1588C124.376 20.2542 124.496 20.384 124.586 20.5479C124.675 20.7119 124.72 20.9018 124.72 21.1177C124.72 21.4103 124.635 21.6635 124.467 21.8773C124.299 22.089 124.068 22.252 123.773 22.3661C123.48 22.4803 123.145 22.5374 122.767 22.5374C122.4 22.5374 122.071 22.4824 121.78 22.3724C121.492 22.2603 121.263 22.0994 121.092 21.8898C120.922 21.6802 120.832 21.428 120.822 21.1332ZM125.081 22.444V17.6618H127.089C127.656 17.6618 128.103 17.7749 128.431 18.0012C128.761 18.2274 128.926 18.5429 128.926 18.9476C128.926 19.2154 128.832 19.4344 128.646 19.6046C128.461 19.7727 128.209 19.8858 127.889 19.9439C128.14 19.9647 128.36 20.028 128.549 20.1338C128.74 20.2397 128.889 20.3788 128.997 20.551C129.105 20.7233 129.159 20.9215 129.159 21.1457C129.159 21.4093 129.09 21.6386 128.951 21.8337C128.814 22.0268 128.613 22.1773 128.35 22.2852C128.088 22.391 127.771 22.444 127.397 22.444H125.081ZM126.136 21.5567H127.397C127.605 21.5567 127.768 21.5079 127.886 21.4103C128.004 21.3107 128.063 21.1758 128.063 21.0056C128.063 20.8084 128.004 20.6538 127.886 20.5417C127.768 20.4275 127.605 20.3705 127.397 20.3705H126.136V21.5567ZM126.136 19.6419H127.111C127.264 19.6419 127.396 19.6201 127.506 19.5765C127.616 19.5309 127.7 19.4676 127.758 19.3866C127.816 19.3036 127.845 19.205 127.845 19.0909C127.845 18.9269 127.778 18.7982 127.643 18.7048C127.51 18.6114 127.326 18.5647 127.089 18.5647H126.136V19.6419ZM130.65 20.9184L132.565 17.6618H133.723V22.444H132.633V19.1843L130.725 22.444H129.563V17.6618H130.65V20.9184ZM133.819 18.5865V17.6618H138.003V18.5865H136.456V22.444H135.366V18.5865H133.819ZM139.461 20.9184L141.376 17.6618H142.534V22.444H141.444V19.1843L139.536 22.444H138.375V17.6618H139.461V20.9184ZM145.992 22.444V18.5772H144.971C144.712 18.5772 144.512 18.6373 144.373 18.7577C144.234 18.8781 144.166 19.0276 144.168 19.2061C144.166 19.3846 144.231 19.5319 144.364 19.6482C144.497 19.7644 144.687 19.8225 144.934 19.8225H146.347V20.6444H144.934C144.552 20.6444 144.222 20.5842 143.944 20.4639C143.666 20.3435 143.452 20.1733 143.302 19.9533C143.153 19.7333 143.078 19.4759 143.078 19.1812C143.078 18.874 143.154 18.6073 143.305 18.381C143.459 18.1527 143.677 17.9763 143.959 17.8517C144.244 17.7251 144.581 17.6618 144.971 17.6618H147.048V22.444H145.992ZM142.904 22.444L144.239 19.9906H145.351L144.012 22.444H142.904Z" fill="white"/> <rect x="18.1514" y="95.9683" width="38.4068" height="19.7955" rx="3.61537" fill="#FFAC00"/> <path d="M26.6515 102.99H27.7879V108.407H29.7556V102.99H30.8857V108.407H32.8378V102.99H33.968V109.366H26.6515V102.99ZM36.1965 109.462C35.8934 109.462 35.6205 109.409 35.3777 109.301C35.1369 109.191 34.9459 109.029 34.8048 108.815C34.6657 108.601 34.5962 108.338 34.5962 108.024C34.5962 107.754 34.646 107.531 34.7456 107.355C34.8453 107.178 34.9812 107.037 35.1535 106.931C35.3258 106.825 35.5198 106.746 35.7357 106.692C35.9536 106.636 36.1788 106.595 36.4113 106.57C36.6915 106.541 36.9188 106.515 37.0931 106.492C37.2675 106.467 37.3941 106.43 37.473 106.38C37.5539 106.328 37.5944 106.248 37.5944 106.141V106.122C37.5944 105.887 37.5249 105.706 37.3858 105.577C37.2467 105.448 37.0464 105.384 36.7849 105.384C36.5089 105.384 36.2899 105.444 36.128 105.565C35.9682 105.685 35.8602 105.827 35.8042 105.991L34.7519 105.842C34.8349 105.551 34.9719 105.308 35.1628 105.113C35.3538 104.916 35.5873 104.769 35.8633 104.671C36.1394 104.571 36.4445 104.522 36.7787 104.522C37.0091 104.522 37.2384 104.549 37.4667 104.602C37.695 104.656 37.9036 104.746 38.0925 104.87C38.2814 104.993 38.4329 105.16 38.5471 105.372C38.6633 105.583 38.7214 105.848 38.7214 106.165V109.366H37.638V108.709H37.6006C37.5321 108.842 37.4356 108.966 37.3111 109.083C37.1886 109.197 37.034 109.289 36.8472 109.36C36.6624 109.428 36.4455 109.462 36.1965 109.462ZM36.4891 108.634C36.7154 108.634 36.9115 108.59 37.0776 108.5C37.2436 108.409 37.3713 108.289 37.4605 108.139C37.5518 107.99 37.5975 107.827 37.5975 107.65V107.087C37.5622 107.116 37.502 107.143 37.4169 107.168C37.3339 107.193 37.2405 107.215 37.1367 107.233C37.0329 107.252 36.9302 107.269 36.8285 107.283C36.7268 107.298 36.6386 107.31 36.5639 107.32C36.3957 107.343 36.2453 107.381 36.1124 107.433C35.9796 107.484 35.8748 107.557 35.798 107.65C35.7212 107.742 35.6828 107.86 35.6828 108.005C35.6828 108.213 35.7585 108.37 35.91 108.476C36.0616 108.581 36.2546 108.634 36.4891 108.634ZM42.4919 104.584V105.508H40.4308V109.366H39.3287V104.584H42.4919ZM47.0991 102.99V109.366H45.9441V104.114H45.9067L44.4154 105.066V104.008L46.0001 102.99H47.0991Z" fill="white"/> <rect x="94.3789" y="57.8546" width="38.4068" height="19.7955" rx="3.61537" fill="#94CAFF"/> <path d="M102.379 64.8761H103.515V70.2934H105.483V64.8761H106.613V70.2934H108.565V64.8761H109.695V71.2523H102.379V64.8761ZM111.924 71.3488C111.621 71.3488 111.348 71.2949 111.105 71.1869C110.864 71.0769 110.673 70.915 110.532 70.7013C110.393 70.4875 110.324 70.2239 110.324 69.9105C110.324 69.6406 110.374 69.4175 110.473 69.2411C110.573 69.0647 110.709 68.9235 110.881 68.8177C111.053 68.7118 111.247 68.6319 111.463 68.5779C111.681 68.5219 111.906 68.4814 112.139 68.4565C112.419 68.4274 112.646 68.4015 112.821 68.3787C112.995 68.3538 113.122 68.3164 113.201 68.2666C113.281 68.2147 113.322 68.1348 113.322 68.0269V68.0082C113.322 67.7736 113.252 67.592 113.113 67.4633C112.974 67.3347 112.774 67.2703 112.512 67.2703C112.236 67.2703 112.017 67.3305 111.856 67.4509C111.696 67.5713 111.588 67.7134 111.532 67.8774L110.479 67.728C110.562 67.4374 110.699 67.1946 110.89 66.9994C111.081 66.8023 111.315 66.6549 111.591 66.5573C111.867 66.4577 112.172 66.4079 112.506 66.4079C112.737 66.4079 112.966 66.4349 113.194 66.4889C113.423 66.5428 113.631 66.6321 113.82 66.7566C114.009 66.8791 114.16 67.0461 114.275 67.2579C114.391 67.4696 114.449 67.7342 114.449 68.0518V71.2523H113.366V70.5954H113.328C113.26 70.7282 113.163 70.8528 113.039 70.969C112.916 71.0832 112.762 71.1755 112.575 71.2461C112.39 71.3146 112.173 71.3488 111.924 71.3488ZM112.217 70.5207C112.443 70.5207 112.639 70.4761 112.805 70.3868C112.971 70.2955 113.099 70.1751 113.188 70.0256C113.279 69.8762 113.325 69.7133 113.325 69.5368V68.9733C113.29 69.0024 113.23 69.0294 113.144 69.0543C113.061 69.0792 112.968 69.101 112.864 69.1197C112.76 69.1383 112.658 69.1549 112.556 69.1695C112.454 69.184 112.366 69.1965 112.291 69.2068C112.123 69.2297 111.973 69.267 111.84 69.3189C111.707 69.3708 111.602 69.4434 111.526 69.5368C111.449 69.6282 111.41 69.7465 111.41 69.8918C111.41 70.0993 111.486 70.256 111.638 70.3619C111.789 70.4677 111.982 70.5207 112.217 70.5207ZM118.219 66.4702V67.3948H116.158V71.2523H115.056V66.4702H118.219ZM122.522 71.3395C122.073 71.3395 121.675 71.2627 121.326 71.1091C120.979 70.9555 120.705 70.7417 120.504 70.4677C120.303 70.1938 120.196 69.8772 120.183 69.5182H121.354C121.364 69.6904 121.421 69.8409 121.525 69.9696C121.629 70.0962 121.767 70.1948 121.939 70.2654C122.112 70.3359 122.305 70.3712 122.518 70.3712C122.747 70.3712 122.949 70.3318 123.126 70.2529C123.302 70.172 123.44 70.0599 123.54 69.9167C123.639 69.7735 123.688 69.6085 123.686 69.4217C123.688 69.2286 123.638 69.0584 123.537 68.9111C123.435 68.7637 123.287 68.6485 123.094 68.5655C122.903 68.4825 122.673 68.4409 122.403 68.4409H121.84V67.5505H122.403C122.625 67.5505 122.819 67.5121 122.985 67.4353C123.154 67.3585 123.285 67.2506 123.381 67.1115C123.476 66.9704 123.523 66.8075 123.521 66.6227C123.523 66.4422 123.483 66.2854 123.4 66.1526C123.319 66.0177 123.203 65.9129 123.054 65.8382C122.907 65.7634 122.733 65.7261 122.534 65.7261C122.339 65.7261 122.158 65.7614 121.992 65.8319C121.826 65.9025 121.692 66.0032 121.591 66.1339C121.489 66.2626 121.435 66.4162 121.429 66.5947H120.317C120.326 66.2377 120.428 65.9243 120.626 65.6545C120.825 65.3826 121.09 65.1709 121.423 65.0193C121.755 64.8657 122.127 64.7889 122.54 64.7889C122.966 64.7889 123.335 64.8689 123.649 65.0287C123.964 65.1864 124.208 65.3992 124.38 65.6669C124.553 65.9347 124.639 66.2304 124.639 66.5542C124.641 66.9133 124.535 67.2143 124.321 67.4571C124.109 67.7 123.831 67.8587 123.487 67.9335V67.9833C123.935 68.0455 124.279 68.2116 124.517 68.4814C124.758 68.7492 124.877 69.0823 124.875 69.4808C124.875 69.8378 124.774 70.1574 124.57 70.4397C124.369 70.7199 124.091 70.9399 123.736 71.0998C123.383 71.2596 122.978 71.3395 122.522 71.3395Z" fill="white"/> <rect x="56.2646" y="76.9115" width="38.4068" height="19.7955" rx="3.61537" fill="#EFACD1"/> <path d="M64.2648 83.933H65.4012V89.3503H67.3688V83.933H68.499V89.3503H70.4511V83.933H71.5812V90.3092H64.2648V83.933ZM73.8098 90.4057C73.5067 90.4057 73.2338 90.3518 72.9909 90.2438C72.7502 90.1338 72.5592 89.9719 72.4181 89.7581C72.279 89.5444 72.2095 89.2808 72.2095 88.9673C72.2095 88.6975 72.2593 88.4744 72.3589 88.298C72.4586 88.1215 72.5945 87.9804 72.7668 87.8745C72.9391 87.7687 73.1331 87.6888 73.349 87.6348C73.5669 87.5788 73.7921 87.5383 74.0246 87.5134C74.3048 87.4843 74.5321 87.4584 74.7064 87.4356C74.8808 87.4106 75.0074 87.3733 75.0862 87.3235C75.1672 87.2716 75.2077 87.1917 75.2077 87.0837V87.0651C75.2077 86.8305 75.1381 86.6489 74.9991 86.5202C74.86 86.3915 74.6597 86.3272 74.3982 86.3272C74.1221 86.3272 73.9032 86.3874 73.7413 86.5078C73.5814 86.6282 73.4735 86.7703 73.4175 86.9343L72.3652 86.7849C72.4482 86.4943 72.5852 86.2514 72.7761 86.0563C72.9671 85.8592 73.2006 85.7118 73.4766 85.6142C73.7527 85.5146 74.0578 85.4648 74.392 85.4648C74.6224 85.4648 74.8517 85.4918 75.08 85.5457C75.3083 85.5997 75.5169 85.689 75.7058 85.8135C75.8947 85.9359 76.0462 86.103 76.1604 86.3147C76.2766 86.5265 76.3347 86.7911 76.3347 87.1087V90.3092H75.2513V89.6523H75.2139C75.1454 89.7851 75.0489 89.9097 74.9243 90.0259C74.8019 90.14 74.6473 90.2324 74.4605 90.303C74.2757 90.3715 74.0588 90.4057 73.8098 90.4057ZM74.1024 89.5776C74.3287 89.5776 74.5248 89.5329 74.6908 89.4437C74.8569 89.3524 74.9845 89.232 75.0738 89.0825C75.1651 88.9331 75.2108 88.7702 75.2108 88.5937V88.0302C75.1755 88.0593 75.1153 88.0863 75.0302 88.1112C74.9472 88.1361 74.8538 88.1579 74.75 88.1765C74.6462 88.1952 74.5435 88.2118 74.4418 88.2264C74.3401 88.2409 74.2519 88.2533 74.1771 88.2637C74.009 88.2865 73.8585 88.3239 73.7257 88.3758C73.5929 88.4277 73.488 88.5003 73.4112 88.5937C73.3345 88.6851 73.2961 88.8034 73.2961 88.9487C73.2961 89.1562 73.3718 89.3129 73.5233 89.4188C73.6748 89.5246 73.8679 89.5776 74.1024 89.5776ZM80.1051 85.5271V86.4517H78.0441V90.3092H76.9419V85.5271H80.1051ZM82.119 90.3092V89.4748L84.3326 87.3048C84.5443 87.091 84.7207 86.9011 84.8618 86.735C85.003 86.569 85.1088 86.4081 85.1794 86.2525C85.25 86.0968 85.2853 85.9308 85.2853 85.7543C85.2853 85.553 85.2396 85.3807 85.1483 85.2375C85.0569 85.0922 84.9314 84.9801 84.7716 84.9013C84.6117 84.8224 84.4301 84.783 84.2267 84.783C84.0171 84.783 83.8334 84.8265 83.6756 84.9137C83.5179 84.9988 83.3954 85.1202 83.3083 85.278C83.2232 85.4357 83.1806 85.6236 83.1806 85.8415H82.0816C82.0816 85.4368 82.174 85.085 82.3587 84.7861C82.5434 84.4872 82.7977 84.2558 83.1215 84.0918C83.4473 83.9278 83.8209 83.8458 84.2423 83.8458C84.6699 83.8458 85.0455 83.9257 85.3693 84.0856C85.6931 84.2454 85.9443 84.4644 86.1228 84.7425C86.3033 85.0206 86.3936 85.3382 86.3936 85.6952C86.3936 85.9339 86.348 86.1684 86.2566 86.3988C86.1653 86.6292 86.0045 86.8845 85.7741 87.1647C85.5457 87.4449 85.2251 87.7843 84.812 88.1828L83.713 89.3005V89.3441H86.4901V90.3092H82.119Z" fill="white"/> <rect x="132.492" y="38.7979" width="38.4068" height="19.7955" rx="3.61537" fill="#66D3C8"/> <path d="M140.492 45.8194H141.629L141.629 51.2366H143.596V45.8194H144.727V51.2366H146.679V45.8194H147.809V52.1956H140.492V45.8194ZM150.037 52.2921C149.734 52.2921 149.461 52.2381 149.218 52.1302C148.978 52.0202 148.787 51.8583 148.646 51.6445C148.507 51.4307 148.437 51.1671 148.437 50.8537C148.437 50.5839 148.487 50.3607 148.586 50.1843C148.686 50.0079 148.822 49.8668 148.994 49.7609C149.167 49.655 149.361 49.5751 149.577 49.5212C149.794 49.4651 150.02 49.4247 150.252 49.3997C150.532 49.3707 150.76 49.3447 150.934 49.3219C151.108 49.297 151.235 49.2596 151.314 49.2098C151.395 49.1579 151.435 49.078 151.435 48.9701V48.9514C151.435 48.7169 151.366 48.5353 151.227 48.4066C151.088 48.2779 150.887 48.2135 150.626 48.2135C150.35 48.2135 150.131 48.2737 149.969 48.3941C149.809 48.5145 149.701 48.6567 149.645 48.8207L148.593 48.6712C148.676 48.3806 148.813 48.1378 149.004 47.9427C149.195 47.7455 149.428 47.5981 149.704 47.5006C149.98 47.401 150.285 47.3511 150.619 47.3511C150.85 47.3511 151.079 47.3781 151.308 47.4321C151.536 47.4861 151.744 47.5753 151.933 47.6998C152.122 47.8223 152.274 47.9894 152.388 48.2011C152.504 48.4128 152.562 48.6774 152.562 48.995V52.1956H151.479V51.5386H151.441C151.373 51.6715 151.276 51.796 151.152 51.9122C151.029 52.0264 150.875 52.1188 150.688 52.1893C150.503 52.2578 150.286 52.2921 150.037 52.2921ZM150.33 51.4639C150.556 51.4639 150.752 51.4193 150.918 51.33C151.084 51.2387 151.212 51.1183 151.301 50.9689C151.393 50.8194 151.438 50.6565 151.438 50.4801V49.9166C151.403 49.9456 151.343 49.9726 151.258 49.9975C151.175 50.0224 151.081 50.0442 150.978 50.0629C150.874 50.0816 150.771 50.0982 150.669 50.1127C150.568 50.1272 150.479 50.1397 150.405 50.1501C150.237 50.1729 150.086 50.2103 149.953 50.2621C149.82 50.314 149.716 50.3867 149.639 50.4801C149.562 50.5714 149.524 50.6897 149.524 50.835C149.524 51.0426 149.599 51.1993 149.751 51.3051C149.902 51.411 150.095 51.4639 150.33 51.4639ZM156.333 47.4134V48.3381H154.272V52.1956H153.169V47.4134H156.333ZM158.231 51.0125V50.094L160.937 45.8194H161.703V47.127H161.236L159.414 50.0131V50.0629H163.191V51.0125H158.231ZM161.273 52.1956V50.7323L161.286 50.3213V45.8194H162.375V52.1956H161.273Z" fill="white"/> </svg>