<?xml version="1.0" encoding="UTF-8"?>
<svg xmlns="http://www.w3.org/2000/svg" width="85" height="20" viewBox="0 0 85 20" fill="none"> <g clip-path="url(#clip0_1008_2382)"> <mask id="mask0_1008_2382" style="mask-type:luminance" maskUnits="userSpaceOnUse" x="0" y="0" width="85" height="20"> <path d="M0 0.635254H84.2726V19.6156H0V0.635254Z" fill="white"/> </mask> <g mask="url(#mask0_1008_2382)"> <path d="M31.848 9.65165C33.0066 7.94722 33.3361 6.47511 32.8047 5.94669C32.6376 5.78498 32.3871 5.69995 32.0568 5.69995C31.3325 5.69995 30.2636 6.10461 29.0822 6.89951C29.5987 7.29667 30.0891 7.7265 30.5506 8.18637C31.0129 8.6475 31.4463 9.13687 31.848 9.65165ZM26.6657 8.19017C27.1259 7.72924 27.6161 7.29935 28.1332 6.9033C26.9519 6.10917 25.8829 5.70375 25.1586 5.70375C24.8329 5.70375 24.5778 5.78498 24.4108 5.95049C23.8801 6.4789 24.2096 7.94722 25.3674 9.65545C25.7675 9.139 26.2012 8.64951 26.6657 8.19017ZM31.5072 10.1254C31.1276 9.62052 30.6781 9.10046 30.1596 8.5842C29.6756 8.10051 29.1578 7.65195 28.61 7.24191C28.0623 7.65169 27.5444 8.1 27.0605 8.58344C26.5749 9.06469 26.1243 9.57999 25.7121 10.1254C26.0917 10.6303 26.5412 11.1503 27.0605 11.6666C27.5798 12.1836 28.1021 12.6308 28.6092 13.0089C29.1573 12.5991 29.6753 12.1508 30.1596 11.6674C30.6449 11.1861 31.0952 10.6708 31.5072 10.1254ZM25.3712 10.5991C24.2134 12.3036 23.8839 13.7757 24.4146 14.3041C24.9461 14.8318 26.4212 14.5045 28.137 13.3475C27.6218 12.9492 27.1317 12.5194 26.6695 12.0606C26.2039 11.6037 25.7701 11.1154 25.3712 10.5991Z" fill="#131313" fill-opacity="0.26"/> <path d="M19.9445 0.635254H4.76785C2.13491 0.635254 0 2.75953 0 5.38033V14.8705C0 17.492 2.13415 19.6156 4.76785 19.6156H33.378C36.0125 19.6156 38.1459 17.492 38.1459 14.8705V0.635254H19.9445ZM19.0729 19.0606H4.76861C2.4477 19.0606 0.558021 17.1792 0.558021 14.8705V5.38033C0.558021 3.07157 2.44846 1.19024 4.76785 1.19024H19.0722V19.0613L19.0729 19.0606ZM33.2004 14.6936C32.9248 14.9669 32.53 15.0982 32.0615 15.0982C31.1353 15.0982 29.9001 14.5926 28.6102 13.6907C27.3195 14.5926 26.0843 15.0982 25.1588 15.0982C24.6858 15.0982 24.2948 14.9669 24.02 14.6928C23.2023 13.8805 23.6555 12.0644 25.0229 10.1254C23.6563 8.18638 23.2023 6.3711 24.02 5.55799C24.8369 4.74411 26.662 5.19508 28.6102 6.55635C30.5583 5.19508 32.3834 4.74411 33.2004 5.55799C34.0173 6.37034 33.5648 8.18638 32.1967 10.1254C33.5678 12.0644 34.0211 13.8797 33.2004 14.6936Z" fill="#131313" fill-opacity="0.26"/> <path d="M30.5535 12.0603C30.093 12.5212 29.6025 12.9511 29.0852 13.3471C30.7972 14.5004 32.2769 14.8276 32.8076 14.3038C33.3391 13.7753 33.0096 12.307 31.851 10.5988C31.4479 11.1113 31.0146 11.5993 30.5535 12.0603ZM4.0236 6.40947C3.51265 7.04493 3.28413 7.91271 3.44281 8.61802C3.85278 10.4447 5.55721 10.7377 6.80839 10.8995C7.79613 11.027 8.74135 11.2084 8.71857 12.0838C8.69124 12.9926 7.66099 13.2166 6.98301 13.2166C5.22088 13.2166 5.16242 11.9214 5.16242 11.9214H3.26819C3.29552 12.4072 3.44281 13.1892 4.04714 13.8604C4.70538 14.5968 5.69691 14.9665 6.98681 14.9665C7.97834 14.9665 8.88104 14.6469 9.5241 14.076V14.858H11.2908V12.6229L11.9133 11.9403L13.6998 14.8625H15.7572L13.1577 10.5882L15.7565 7.75479H13.4674L11.2908 10.1288V5.37998H9.5241V6.52867C9.46437 6.45338 9.40234 6.37995 9.33809 6.30849C8.69504 5.63052 7.76956 5.28735 6.58443 5.28735C5.21633 5.29115 4.43813 5.90004 4.0236 6.40947ZM6.61859 6.93333C7.41273 6.93333 8.20686 7.11098 8.50903 8.2088H9.5241V9.8897C8.25773 8.85337 5.50786 9.50478 5.21253 8.21336C5.05765 7.53462 5.73639 6.93333 6.61859 6.93333ZM42.6462 13.6713C42.767 13.7093 42.9021 13.729 43.0608 13.729C43.2582 13.729 43.4176 13.6713 43.5376 13.5521C43.6575 13.4322 43.735 13.2743 43.7737 13.1012L41.2599 7.8049H42.9332L44.5443 11.6055L45.9587 7.8049H47.5508L45.2845 13.0237C44.9861 13.7138 44.6802 14.2263 44.3431 14.5497C44.006 14.8853 43.6423 15.0508 43.2354 15.0508C43.0957 15.0508 42.9871 15.0508 42.8983 15.0318C42.8146 15.0219 42.7318 15.0052 42.6508 14.9817L42.461 14.924C42.4101 14.9051 42.36 14.8861 42.3137 14.8739V13.5362C42.4063 13.5947 42.5149 13.6448 42.6462 13.6713ZM50.2778 12.8848C50.1769 12.9152 50.0683 12.9349 49.9514 12.9622C49.8322 12.9812 49.7039 13.0002 49.5763 13.0123C49.4488 13.0313 49.3205 13.0313 49.2005 13.0313C48.9314 13.0321 48.6629 13.0064 48.3988 12.9546C48.1896 12.9077 47.9911 12.8214 47.8142 12.7003C47.653 12.5788 47.5293 12.4144 47.4574 12.2258C47.3728 12.0031 47.3321 11.7662 47.3374 11.5281V9.63916H48.701V11.2624C48.701 11.4089 48.7207 11.5395 48.7594 11.6245C48.7898 11.7247 48.8483 11.8022 48.9257 11.8599C49.0031 11.9176 49.0927 11.9601 49.2119 11.9791C49.3326 11.9988 49.4678 12.0094 49.6264 12.0094C49.8633 12.0094 50.041 11.9904 50.1807 11.9525C50.3204 11.9024 50.4289 11.8523 50.5056 11.8059V9.63916H51.8692V14.8777H50.5056V12.8127C50.4555 12.8278 50.3743 12.8544 50.2778 12.8848ZM57.1601 14.2225C57.1667 14.3051 57.1908 14.3853 57.2307 14.4579C57.2611 14.527 57.2884 14.5657 57.3309 14.5968C57.3696 14.6272 57.4008 14.6469 57.4516 14.6545V14.8701H55.937L55.8596 14.6234C55.8202 14.5056 55.803 14.3815 55.8087 14.2574L55.5028 14.5611C55.3957 14.6505 55.2803 14.7293 55.1581 14.7965C55.0219 14.8716 54.876 14.9275 54.7246 14.9628C54.5575 15.0007 54.3601 15.0205 54.1324 15.0205C53.8955 15.0205 53.6784 14.9901 53.4772 14.9202C53.2881 14.8513 53.1134 14.7481 52.9617 14.6158C52.8144 14.4707 52.6995 14.296 52.6246 14.1033C52.5412 13.8801 52.5006 13.6431 52.5046 13.4048C52.5046 13.1892 52.5357 12.9926 52.6056 12.8043C52.6754 12.6153 52.7726 12.4611 52.8918 12.3222C53.0201 12.1833 53.1712 12.0679 53.3451 11.9791C53.5235 11.8788 53.7209 11.8211 53.9494 11.79L55.2856 11.5941C55.3365 11.582 55.3866 11.582 55.445 11.563C55.5027 11.553 55.5571 11.5294 55.6037 11.4939C55.6528 11.4642 55.694 11.4231 55.7237 11.374C55.7583 11.3075 55.7755 11.2333 55.7738 11.1583C55.7738 11.0695 55.7548 10.9921 55.7358 10.923C55.7066 10.8488 55.6584 10.7836 55.5961 10.7339C55.5221 10.6721 55.4344 10.6286 55.3403 10.6072C55.2069 10.5765 55.0701 10.5635 54.9333 10.5684C54.7435 10.5684 54.6084 10.5874 54.4998 10.6185C54.3996 10.6495 54.3081 10.7036 54.2326 10.7765C54.1665 10.8399 54.116 10.9179 54.0853 11.0042L54.0268 11.2889H52.6633C52.67 11.0676 52.7214 10.8499 52.8144 10.6489C52.8652 10.5221 52.9541 10.3832 53.0513 10.245C53.1515 10.1061 53.279 9.97928 53.4574 9.85933C53.6169 9.75152 53.8256 9.65131 54.0618 9.58146C54.3399 9.50637 54.6263 9.46633 54.9144 9.46226C55.379 9.46226 55.7662 9.51237 56.0608 9.6012C56.347 9.70141 56.5755 9.82896 56.7425 9.97473C56.9012 10.1326 57.0098 10.2989 57.0675 10.4872C57.1184 10.677 57.1449 10.8615 57.1449 11.0505V13.8255C57.1335 13.9993 57.1411 14.1261 57.1601 14.2225ZM55.5187 12.4338C55.411 12.4812 55.2977 12.5149 55.1816 12.534L54.8172 12.6039C54.6577 12.6343 54.5188 12.6616 54.4026 12.7041C54.2827 12.7421 54.1863 12.7929 54.1043 12.8506C54.0288 12.9154 53.9682 12.9956 53.9266 13.086C53.8842 13.1923 53.8643 13.3063 53.8682 13.4208C53.8682 13.5286 53.8879 13.6288 53.9183 13.7063C53.9544 13.7871 54.009 13.8584 54.0777 13.9143C54.1369 13.97 54.2084 14.0109 54.2865 14.0335C54.3761 14.0646 54.4649 14.0722 54.5659 14.0722C54.616 14.0722 54.6858 14.0608 54.7633 14.0532C54.8407 14.0418 54.922 14.0228 55.0184 13.9955C55.108 13.9568 55.1968 13.9181 55.2864 13.8566C55.3752 13.8065 55.4526 13.729 55.5217 13.641C55.5999 13.5521 55.6614 13.4436 55.7001 13.3054C55.7458 13.1594 55.7693 13.0074 55.77 12.8544V12.3146C55.6901 12.3621 55.606 12.402 55.5187 12.4338ZM60.9797 11.1234C60.9433 11.0243 60.8867 10.9338 60.8134 10.8577C60.7373 10.7838 60.6461 10.7271 60.5462 10.6914C60.4201 10.6569 60.2898 10.64 60.159 10.6413C59.9305 10.6413 59.7521 10.6914 59.6162 10.8C59.4789 10.9019 59.3697 11.0369 59.2988 11.1925C59.2236 11.3616 59.174 11.541 59.1515 11.7247C59.1325 11.9138 59.1136 12.0869 59.1136 12.2562C59.1136 12.4232 59.1242 12.6115 59.1439 12.796C59.1629 12.9934 59.2024 13.1589 59.2836 13.3168C59.3527 13.4747 59.4506 13.6129 59.601 13.7101C59.7407 13.8179 59.9267 13.868 60.1666 13.868C60.326 13.868 60.465 13.8376 60.5811 13.7678C60.6897 13.7101 60.7899 13.6288 60.8673 13.54C60.9425 13.4488 61.0027 13.3463 61.0458 13.2363C61.0769 13.1353 61.0966 13.0389 61.0966 12.9508H62.5217C62.5217 13.0389 62.5103 13.1475 62.4829 13.2857C62.4418 13.4375 62.3885 13.5858 62.3235 13.729C62.2544 13.8756 62.1572 14.0335 62.0456 14.1922C61.9173 14.3501 61.7776 14.4882 61.6 14.6044C61.4216 14.7312 61.2242 14.8322 60.9881 14.9081C60.7222 14.9907 60.445 15.0312 60.1666 15.028C59.7718 15.028 59.415 14.9703 59.109 14.8511C58.8137 14.7335 58.5499 14.5487 58.3384 14.3113C58.1173 14.058 57.9545 13.7592 57.8616 13.436C57.7463 13.0537 57.69 12.6561 57.6946 12.2569C57.6946 11.8059 57.7531 11.4089 57.8738 11.065C57.9937 10.7309 58.16 10.4371 58.3771 10.1987C58.5943 9.96334 58.8531 9.78569 59.1591 9.66649C59.4801 9.53626 59.824 9.47197 60.1704 9.47745C60.3298 9.47745 60.4961 9.49643 60.6737 9.51541C60.8408 9.53515 61.0108 9.58525 61.1779 9.64295C61.3441 9.7128 61.5028 9.78948 61.6615 9.8897C61.8088 9.98991 61.9485 10.1175 62.076 10.264C62.196 10.4105 62.2931 10.5874 62.3744 10.784C62.4518 10.9814 62.5019 11.216 62.5217 11.4825H61.0966C61.0571 11.3512 61.0268 11.2198 60.9797 11.1234ZM67.2781 9.63536V10.7377H65.6861V14.8739H64.3225V10.7377H62.7304V9.63536H67.2781ZM71.0742 11.5281V9.63916H72.4377V14.8777H71.0742V12.6342H69.0676V14.8777H67.704V9.63536H69.0676V11.5243H71.0742V11.5281ZM74.7389 12.8658L76.6605 9.63536H78.0931V14.8739H76.7296V11.7133H76.7106L74.8505 14.8739H73.3564V9.63536H74.7192V12.8658H74.7389ZM82.3622 9.63536H84.1827L82.0053 11.8135L84.2716 14.8739H82.4897L80.9477 12.657L80.3943 13.2204V14.8739H79.0307V9.63536H80.3943V11.6245L82.3622 9.63536Z" fill="#131313" fill-opacity="0.26"/> </g> </g> <defs> <clipPath id="clip0_1008_2382"> <rect width="84.2726" height="18.9803" fill="white" transform="translate(0 0.635254)"/> </clipPath> </defs> </svg>