<?xml version="1.0" encoding="UTF-8"?>
<svg xmlns="http://www.w3.org/2000/svg" width="160" height="30" viewBox="0 0 160 30" fill="none"> <path d="M28.8251 10.9467C28.638 9.63688 27.8895 5.94125 24.9424 4.39751C22.9776 3.36834 19.703 2.24562 15.3057 3.228C12.265 3.9297 11.3294 4.91209 10.4406 6.08159C9.41139 7.39144 9.45817 9.16908 9.27105 11.4145C9.22427 11.7888 8.94359 12.0227 8.56935 12.0227C6.74492 11.9759 4.73338 11.7888 2.81539 11.6484C2.44115 11.6016 2.11369 11.9291 2.06691 12.3034C1.83301 18.2444 3.14285 21.4255 6.46424 23.3902C8.10155 24.3258 9.87919 24.8872 12.8263 24.2323C12.8731 24.3258 12.9199 24.4662 12.9667 24.5597C14.6975 28.6764 14.3233 29.8459 18.4867 29.2845C19.2352 29.191 19.9369 29.0039 20.5918 28.7232C23.96 27.3666 27.796 23.9984 27.8428 20.3495C27.8895 15.999 29.2929 14.1746 28.8251 10.9467Z" fill="#FFAC00"/> <path d="M22.0434 6.12849C29.2475 15.9991 14.6989 17.6364 13.8568 11.7889C13.0616 6.36239 20.2657 3.64914 22.0434 6.12849Z" fill="white"/> <path d="M22.3221 8.70113C21.7608 7.39129 20.2638 6.22178 18.7201 6.50247C18.3458 6.54925 18.3926 7.11061 18.7668 7.06383C20.0299 6.82993 21.293 7.81231 21.7608 8.93503C21.9011 9.26249 22.4625 9.02859 22.3221 8.70113Z" fill="#131313"/> <path d="M14.8891 21.5189C14.702 21.5657 14.5149 21.5657 14.4213 21.5657C14.0003 21.6125 13.6728 21.3318 13.6261 20.9108C13.5793 20.5365 13.86 20.1623 14.281 20.1155C14.6552 20.0687 18.0702 19.6945 19.1461 17.6829C19.3332 17.3087 19.7543 17.1684 20.1285 17.3555C20.5027 17.5426 20.6431 17.9636 20.456 18.3379C19.2397 20.6301 16.199 21.3318 14.8891 21.5189Z" fill="#131313"/> <path d="M7.87054 16.4666C8.24478 16.3263 8.52546 15.9521 8.38512 15.6246C8.29156 15.2504 7.87054 15.0632 7.4963 15.2036C7.12206 15.3439 6.84138 15.7182 6.98172 16.0456C7.07528 16.3731 7.44952 16.5602 7.87054 16.4666Z" fill="#131313"/> <path d="M7.77716 17.9167C8.05784 17.8231 8.19818 17.5892 8.1514 17.3085C8.05784 17.0746 7.82394 16.9343 7.54326 17.0278C7.26258 17.1214 7.12224 17.3553 7.16902 17.636C7.26258 17.8699 7.54326 18.0102 7.77716 17.9167Z" fill="#131313"/> <path d="M9.50495 17.2619C9.78563 17.1683 9.92597 16.9344 9.87919 16.6537C9.78563 16.4198 9.55173 16.2795 9.27105 16.3731C8.99036 16.4666 8.85002 16.7005 8.8968 16.9812C8.99036 17.2151 9.27105 17.3554 9.50495 17.2619Z" fill="#131313"/> <path d="M20.3143 11.5548C20.5014 10.3385 20.0336 9.26259 19.2383 9.12225C18.443 8.98191 17.6478 9.87073 17.4607 11.087C17.2735 12.3033 17.7413 13.3792 18.5366 13.5196C19.3319 13.6599 20.1271 12.7711 20.3143 11.5548Z" fill="#131313"/> <path d="M13.1095 11.3678C13.3434 10.479 13.0627 9.68371 12.5013 9.49659C11.94 9.35625 11.2383 9.91761 11.0044 10.7597C10.7705 11.6485 11.0511 12.4437 11.6125 12.6309C12.2206 12.7712 12.8756 12.2098 13.1095 11.3678Z" fill="#131313"/> <path d="M19.144 11.3208C19.144 11.7418 19.5183 12.1161 19.9393 12.1161C20.0329 12.1161 20.1264 12.1161 20.22 12.0693C20.2668 11.9289 20.3135 11.7418 20.3603 11.5547C20.4071 11.2272 20.4071 10.9466 20.3603 10.6659C20.22 10.5723 20.0796 10.5723 19.9393 10.5723C19.5183 10.5255 19.144 10.8998 19.144 11.3208Z" fill="white"/> <path d="M12.6893 10.5256C12.3151 10.5256 12.0344 10.8063 12.0344 11.1806C12.0344 11.5548 12.3151 11.8355 12.6893 11.8355C12.7829 11.8355 12.8765 11.8355 12.97 11.7887C13.0168 11.6484 13.0636 11.508 13.1104 11.3677C13.1571 11.1806 13.2039 10.9934 13.2039 10.8063C13.1104 10.6192 12.9232 10.5256 12.6893 10.5256Z" fill="white"/> <path d="M32.4293 3.50851C30.3242 0.374241 25.5059 1.73087 20.6875 0C20.3601 0.935603 20.3601 1.77765 20.594 2.52613C20.0326 2.43257 19.4245 2.38579 18.7695 2.38579C18.2082 2.38579 17.6468 2.43257 17.0855 2.47935C17.0855 2.43257 17.0855 2.38579 17.0387 2.33901C16.4305 -0.140341 8.57147 2.29223 6.41958 0.982383C6.6067 3.60207 8.15045 5.09904 9.64741 6.97024C9.22639 8.13975 9.22639 9.58993 9.08605 11.274C9.03927 11.6483 8.75859 11.9289 8.38435 11.8822C7.63586 11.8822 6.8406 11.8354 5.99856 11.7886C5.29686 10.1045 -0.644222 9.12213 0.0574806 12.9113C0.384942 14.7357 1.03986 16.0924 1.88191 16.8409C2.39649 20.1622 3.75311 22.2206 6.23246 23.6708C7.35518 24.3257 8.80537 24.6999 10.5362 24.6999C11.4251 24.6999 11.7993 24.7467 12.8285 24.5128C12.8752 24.6064 12.9688 24.7467 13.0156 24.8403C14.5593 28.4423 13.8576 29.8457 17.0387 29.8457C17.6 29.8457 18.2082 29.799 18.8163 29.7054C19.5648 29.6118 20.3133 29.3779 21.015 29.0973C24.4767 27.6938 29.2483 24.3257 29.2951 20.5833C29.3419 16.4198 29.8564 14.3615 29.4822 11.3676C31.5873 9.87061 32.5229 6.92346 32.8971 5.4265C32.9439 4.77158 32.8036 4.06987 32.4293 3.50851ZM27.7045 20.5833C27.6578 23.8579 23.2604 26.5711 20.3601 27.7874C19.7519 28.0213 19.1438 28.2084 18.5356 28.302C17.9743 28.3955 17.4129 28.4423 16.9451 28.4423C14.7932 28.4423 15.7756 27.881 14.2786 24.3257C14.2319 24.2321 14.1851 24.1386 14.1383 24.045C14.1383 23.9982 14.0915 23.9982 14.0915 23.9514L13.6237 22.9223L12.501 23.1562C11.6122 23.3433 11.3315 23.2965 10.4895 23.2965C9.13283 23.2965 7.86976 23.0158 6.88738 22.4545C5.29686 21.5189 4.22091 20.2558 3.65955 18.4314C3.51921 17.9636 3.65955 17.4022 4.03379 17.1215C4.64193 16.6537 5.2033 15.7649 5.62432 14.2679C5.76466 13.7066 6.32602 13.3323 6.88738 13.3791C7.35518 13.4259 7.82298 13.4259 8.29079 13.4259H8.33757C9.46029 13.4259 10.3491 12.5839 10.4895 11.4611C10.5362 11.0869 10.5362 10.7127 10.583 10.3852C10.6766 9.44959 10.7234 8.65433 10.8637 7.95263C11.4251 7.20414 12.3607 6.73634 13.2495 6.73634C13.6237 6.73634 13.6237 6.1282 13.2495 6.17498C12.6413 6.17498 11.9864 6.40888 11.4251 6.73634C12.1268 5.84752 12.8285 5.00548 15.6353 4.35055C16.7112 4.11665 17.7404 3.97631 18.7695 3.97631C19.7519 3.97631 20.6875 4.06987 21.5763 4.30377C23.4943 6.54922 27.1432 8.37365 27.9384 11.9289C28.2191 14.5018 27.7513 16.4666 27.7045 20.5833Z" fill="#131313"/> <path d="M2.06842 11.9759C2.44266 11.8356 2.72334 11.4613 2.583 11.1339C2.48944 10.7596 2.06842 10.5725 1.69418 10.7129C1.31993 10.8532 1.03925 11.2274 1.17959 11.5549C1.27315 11.8824 1.64739 12.0695 2.06842 11.9759Z" fill="white"/> <path d="M39.8678 20.1156V11.2274C39.8678 10.8999 40.0549 10.666 40.4292 10.666H42.6746C43.0021 10.666 43.236 10.8531 43.236 11.2274V19.7414C43.236 21.6126 44.4055 22.2675 45.6218 22.2675C46.838 22.2675 48.0075 21.6593 48.0075 19.7414V11.2274C48.0075 10.8999 48.1947 10.666 48.5689 10.666H50.8143C51.1418 10.666 51.3757 10.8531 51.3757 11.2274V20.1156C51.3757 22.9692 49.3642 25.4953 45.6685 25.4953C41.9729 25.4953 39.8678 22.9692 39.8678 20.1156Z" fill="#231F20"/> <path d="M53.667 24.7471V11.2276C53.667 10.9002 53.8541 10.6663 54.2284 10.6663H56.4738C56.7545 10.6663 56.9884 10.7598 57.1287 11.0405L62.4617 19.4141V11.2276C62.4617 10.9002 62.6488 10.6663 63.023 10.6663H65.2685C65.5959 10.6663 65.8298 10.8534 65.8298 11.2276V24.7471C65.8298 25.0745 65.6427 25.3084 65.2685 25.3084H63.023C62.7423 25.3084 62.5084 25.2149 62.3681 24.9342L57.0352 16.5606V24.7471C57.0352 25.0745 56.848 25.3084 56.4738 25.3084H54.2284C53.8541 25.3084 53.667 25.0745 53.667 24.7471Z" fill="#231F20"/> <path d="M68.1219 24.7468V11.2274C68.1219 10.8999 68.3091 10.666 68.6833 10.666H70.9288C71.2562 10.666 71.4901 10.8531 71.4901 11.2274V24.7468C71.4901 25.0743 71.303 25.3082 70.9288 25.3082H68.6833C68.3091 25.3082 68.1219 25.0743 68.1219 24.7468Z" fill="#231F20"/> <path d="M73.5023 22.3612C73.362 22.0805 73.4556 21.7999 73.6895 21.6595L75.5139 20.3497C75.7946 20.1625 76.0285 20.2093 76.2624 20.4432C76.9173 21.1917 78.4143 22.2209 80.0516 22.2209C81.5485 22.2209 81.876 21.6595 81.876 21.0046C81.876 20.0222 79.7709 19.648 78.7417 19.2737C77.6658 18.8995 73.9234 18.151 73.9234 14.8296C73.9234 11.6018 76.7769 10.3855 79.6773 10.3855C82.2502 10.3855 84.4489 11.7421 85.2442 13.1455C85.4313 13.4262 85.2909 13.7069 85.057 13.8472L83.3262 15.0167C83.0455 15.2039 82.8116 15.1571 82.5777 14.9232C81.9695 14.3618 80.7065 13.6601 79.3031 13.6601C78.2271 13.6601 77.7126 14.0343 77.7126 14.6893C77.7126 15.7184 79.6773 16.0459 80.7533 16.4201C81.7824 16.7944 85.5716 17.73 85.5716 20.8175C85.5716 23.905 83.1858 25.4955 79.6773 25.4955C76.543 25.5423 74.3912 23.9985 73.5023 22.3612Z" fill="#231F20"/> <path d="M87.2557 18.0105C87.2557 13.6599 90.2964 10.5256 94.6002 10.5256C96.986 10.5256 98.904 11.4612 100.167 13.0518C100.354 13.3324 100.354 13.5663 100.073 13.8002L98.2958 15.1569C98.0152 15.344 97.7813 15.2972 97.5474 15.1101C96.8924 14.4552 95.8633 13.8938 94.647 13.8938C92.2144 13.8938 90.5771 15.6247 90.5771 18.0572C90.5771 20.4898 92.2144 22.2207 94.647 22.2207C95.8633 22.2207 96.8924 21.6125 97.5474 20.9108C97.7813 20.6769 98.0152 20.5834 98.2958 20.8173L100.12 22.2207C100.401 22.4546 100.448 22.6885 100.261 22.9224C98.9975 24.5129 97.0328 25.4953 94.647 25.4953C90.2964 25.4485 87.2557 22.3142 87.2557 18.0105Z" fill="#231F20"/> <path d="M102.366 24.7471V11.2276C102.366 10.9002 102.553 10.6663 102.927 10.6663H105.173C105.5 10.6663 105.734 10.8534 105.734 11.2276V16.3734H111.301V11.2276C111.301 10.9002 111.488 10.6663 111.862 10.6663H114.108C114.435 10.6663 114.669 10.8534 114.669 11.2276V24.7471C114.669 25.0745 114.482 25.3084 114.108 25.3084H111.862C111.535 25.3084 111.301 25.1213 111.301 24.7471V19.6013H105.641V24.7471C105.641 25.0745 105.453 25.3084 105.079 25.3084H102.881C102.553 25.3084 102.366 25.0745 102.366 24.7471Z" fill="#231F20"/> <path d="M116.726 18.0105C116.726 13.6599 119.767 10.5256 124.071 10.5256C128.375 10.5256 131.369 13.6599 131.369 18.0105C131.369 22.361 128.375 25.4953 124.071 25.4953C119.767 25.4953 116.726 22.3142 116.726 18.0105ZM128.094 18.0105C128.094 15.5779 126.503 13.847 124.071 13.847C121.638 13.847 120.001 15.5779 120.001 18.0105C120.001 20.443 121.638 22.1739 124.071 22.1739C126.503 22.1739 128.094 20.3962 128.094 18.0105Z" fill="#231F20"/> <path d="M133.242 18.0105C133.242 13.6599 136.283 10.5256 140.586 10.5256C144.89 10.5256 147.884 13.6599 147.884 18.0105C147.884 22.361 144.89 25.4953 140.586 25.4953C136.283 25.4953 133.242 22.3142 133.242 18.0105ZM144.609 18.0105C144.609 15.5779 143.019 13.847 140.586 13.847C138.154 13.847 136.516 15.5779 136.516 18.0105C136.516 20.443 138.154 22.1739 140.586 22.1739C143.019 22.1739 144.609 20.3962 144.609 18.0105Z" fill="#231F20"/> <path d="M149.942 24.7468V11.2274C149.942 10.8999 150.129 10.666 150.503 10.666H152.749C153.076 10.666 153.31 10.8531 153.31 11.2274V22.2675H159.438C159.766 22.2675 160 22.4546 160 22.8289V24.7468C160 25.0743 159.813 25.3082 159.438 25.3082H150.55C150.176 25.3082 149.942 25.0743 149.942 24.7468Z" fill="#231F20"/> </svg>