<?xml version="1.0" encoding="UTF-8"?>
<svg xmlns="http://www.w3.org/2000/svg" width="56" height="56" viewBox="0 0 56 56" fill="none"> <circle cx="28" cy="28" r="28" fill="#372F2C"/> <path d="M30.97 13.7273L30.4661 35.8075H25.5492L25.0605 13.7273H30.97ZM28.0076 45.3359C27.0813 45.3359 26.2872 45.0102 25.6255 44.3587C24.974 43.7071 24.6483 42.9131 24.6483 41.9766C24.6483 41.0604 24.974 40.2765 25.6255 39.625C26.2872 38.9735 27.0813 38.6477 28.0076 38.6477C28.9136 38.6477 29.6975 38.9735 30.3592 39.625C31.0311 40.2765 31.367 41.0604 31.367 41.9766C31.367 42.5975 31.2092 43.1625 30.8936 43.6715C30.5882 44.1805 30.181 44.5877 29.6721 44.8931C29.1732 45.1883 28.6184 45.3359 28.0076 45.3359Z" fill="white"/> </svg>