<?xml version="1.0" encoding="UTF-8"?>
<svg xmlns="http://www.w3.org/2000/svg" width="178" height="152" viewBox="0 0 178 152" fill="none"> <path d="M31.4703 5.26978C30.6464 5.37277 31.0598 8.11069 31.1624 8.70069C31.6606 11.5653 30.9566 13.9335 30.7006 16.7502C30.2972 21.187 29.8868 25.7619 29.8868 30.2099C29.8868 33.7728 29.8868 37.3357 29.8868 40.8985C29.8868 42.0701 30.5146 47.5125 29.491 48.0243" stroke="#4E4744" stroke-width="7.00901" stroke-linecap="round"/> <path d="M83.6827 6.84667C82.8875 4.36177 83.6183 6.0049 84.0786 7.46248C85.29 11.2986 85.7099 12.8071 87.5506 16.3965C90.8698 22.869 92.4016 30.0541 94.8963 36.8501C95.8275 39.3867 97.568 41.4887 98.3712 44.1518C99.0026 46.2453 99.6471 48.3263 100.351 50.3978C100.887 51.9783 101.934 56.8175 101.934 55.1483" stroke="#4E4744" stroke-width="7.00901" stroke-linecap="round"/> <path d="M20.7823 5.26957C19.1345 5.16659 20.9455 4.48957 21.662 4.47782C25.1354 4.42088 28.5954 4.53878 32.0647 4.27988C41.8421 3.55023 51.8388 4.47782 61.6454 4.47782C71.5665 4.47782 81.4822 5.08757 91.38 5.68744C94.2366 5.86057 102.819 6.06132 99.9573 6.06132" stroke="#4E4744" stroke-width="7.00901" stroke-linecap="round"/> <path d="M5.73853 61.4838C7.0855 59.9685 8.61148 58.2761 10.1819 56.9912C12.823 54.8304 15.007 53.2155 18.3186 52.0708C25.8801 49.4569 33.2666 48.4199 41.2353 48.4199C51.1616 48.4199 60.588 50.9421 69.8703 54.38C74.0668 55.9343 76.145 58.3805 79.4593 61.1099C82.9456 63.981 86.733 66.4259 88.8723 70.5889C91.5234 75.7477 93.0764 81.4069 95.2063 86.7319C95.9626 88.6225 97.4135 89.9972 97.9775 92.0542C98.7604 94.9096 98.7698 98.1334 99.341 101.071C100.259 105.792 100.055 110.628 99.583 115.345C99.3359 117.815 99.5501 120.106 98.7692 122.449" stroke="#4E4744" stroke-width="7.00901" stroke-linecap="round"/> <path d="M81.4403 59.3276C64.6502 59.3276 113.738 58.5028 130.527 58.7127C134.316 58.76 138.087 59.1085 141.897 59.1085C144.501 59.1085 147.823 59.1941 150.365 59.7023C152.148 60.059 154.107 60.7816 155.775 61.4838C157.794 62.334 161.317 62.4674 161.317 65.4425" stroke="#4E4744" stroke-width="7.00901" stroke-linecap="round"/> <path d="M159.708 64.0002C160.345 64.1419 161.587 66.9073 162.044 67.5047C162.738 68.4126 163.846 71.1658 164.38 72.1774C165.876 75.012 166.717 80.3546 166.717 80.3546C166.717 80.3546 166.861 85.0588 166.861 87.2153C166.861 88.7988 166.861 90.3823 166.861 91.9658" stroke="#4E4744" stroke-width="7.00901" stroke-linecap="round"/> <path d="M101.145 93.1539C99.8543 92.4655 104.296 92.2369 104.95 92.1642C108.824 91.7338 112.73 92.1722 116.606 91.7684C124.427 90.9537 133.257 90.3756 141.128 91.2625C149.259 92.1786 173.855 91.5704 165.673 91.5704" stroke="#4E4744" stroke-width="7.00901" stroke-linecap="round"/> <path d="M169.558 102.55C169.558 99.6512 160.567 94.0586 158.539 93.2047C155.152 91.7787 150.556 90.8682 146.857 90.8682C140.865 90.8682 136.327 91.1634 131.671 95.8191C129.016 98.4739 128.167 99.0453 125.83 102.55C123.495 106.053 123.524 107.786 122.326 111.895C122.128 115.161 122.278 117.982 121.928 119.875C121.535 121.995 121.555 124.415 122.126 126.495C123.356 130.982 123.526 134.674 127.47 137.69C131.022 140.406 133.831 143.623 138.335 144.815C142.558 145.933 146.042 145.5 150.321 145.409C154.701 145.316 159.067 143.707 162.285 140.659C163.883 139.145 165.932 137.966 167.343 136.304C169.038 134.308 169.955 131.998 171.214 129.75C172.279 127.849 173.417 125.24 173.567 123.064C173.695 121.219 173.725 124.745 173.413 117.478C173.707 115.034 174.375 122.237 173.725 120.072C173.423 119.063 172.777 112.907 172.557 111.895C172.318 110.795 170.981 107.039 170.73 105.91C169.554 100.617 167.131 99.7381 163.212 95.8192" stroke="#4E4744" stroke-width="7.00901" stroke-linecap="round"/> <path d="M100.131 121.26C98.7801 121.26 100.836 122.387 101.299 122.429C104.3 122.701 107.64 122.568 110.644 122.429C112.677 122.334 114.454 122.485 116.485 122.429C117.237 122.408 120.36 122.409 121.158 122.409" stroke="#4E4744" stroke-width="7.00901" stroke-linecap="round"/> <path d="M58.3907 69.7971C58.2244 68.4667 50.0054 68.2098 48.7137 67.8177C41.1638 65.5257 32.4243 67.7932 25.2251 70.1929C20.0775 71.9088 15.3624 75.8819 11.4355 79.518C7.18232 83.4561 5.10979 88.9866 4.46366 94.7372C3.69556 101.573 4.10074 108.666 4.15576 115.543C4.22136 123.743 8.37687 130.209 13.8547 136.04C16.0764 138.405 18.9875 140.951 21.8636 142.268C24.9874 143.698 28.3278 144.586 31.5591 145.717C36.9168 147.592 44.0352 148.076 49.6814 147.762C56.5956 147.378 61.7463 145.969 67.4958 142.088C72.4213 138.764 78.0728 135.708 81.1755 130.278C83.4671 126.268 83.983 120.999 84.6064 116.51C85.3386 111.238 85.6411 106.161 84.7384 100.873C84.2423 97.9679 84.404 95.3 83.4188 92.4499C82.4839 89.7454 80.6482 88.0779 78.5803 86.2039C76.7175 84.5157 75.4908 82.3226 73.7418 80.5737C72.1094 78.9413 70.2624 77.453 68.5955 75.8232C65.9587 73.245 62.4249 71.7844 59.245 69.8411C58.1152 69.1507 44.7193 66.9077 43.3856 66.9077" stroke="#4E4744" stroke-width="7.00901" stroke-linecap="round"/> <path d="M37.409 95.6168C40.0745 94.2589 44.0587 93.2044 49.8995 97.8772C52.7796 101.774 52.6521 100.411 53.9478 103.05C55.7404 106.702 54.5722 108.391 53.9478 111.895C51.4499 114.793 50.3884 119.364 46.395 120.072C42.6913 120.729 34.0416 121.174 31.4928 117.478C29.0212 113.894 29.2759 108.211 29.8873 104.084C30.5126 99.8637 33.8879 97.4106 37.409 95.6168Z" stroke="#4E4744" stroke-width="7.00901" stroke-linecap="round"/> <path d="M133.21 57.1294C133.326 56.0853 134.002 55.4945 134.002 54.2703C134.002 51.0696 133.444 48.0501 133.232 44.8793C132.887 39.7003 132.814 34.1825 132.814 29.0223C132.814 26.1512 133.279 21.4324 135.388 19.3233C138.111 16.6004 141.305 16.3542 145.087 16.3542" stroke="#4E4744" stroke-width="7.00901" stroke-linecap="round"/> <path d="M149.838 116.906C148.736 115.914 147.072 115.792 146.275 117.302C144.558 120.554 148.852 120.14 150.362 118.904C151.596 117.895 149.188 116.023 148.276 116.137C146.385 116.373 146.531 119.247 148.254 119.677" stroke="#4E4744" stroke-width="7.00901" stroke-linecap="round"/> </svg>